<svg xmlns="http://www.w3.org/2000/svg" width="41" height="29" viewBox="0 0 41 29"><g transform="translate(-4886 -563)"><path d="M29,59.882H3a3,3,0,0,0-3,3v18a3,3,0,0,0,3,3H29a3,3,0,0,0,3-3v-18A3,3,0,0,0,29,59.882Zm0,2a.994.994,0,0,1,.383.077L16,73.559,2.617,61.959A1,1,0,0,1,3,61.882Zm0,20H3a1,1,0,0,1-1-1V64.072L15.345,75.638a1,1,0,0,0,1.311,0L30,64.072v16.81A1,1,0,0,1,29,81.882Z" transform="translate(4891 505.118)" fill="#b8860b"/><rect width="41" height="29" transform="translate(4886 563)" fill="none"/></g></svg>