<svg xmlns="http://www.w3.org/2000/svg" width="41" height="36" viewBox="0 0 41 36"><g transform="translate(-4844.571 -572)"><g transform="translate(4849.337 573.32)"><g transform="translate(8.653 7.633)"><path d="M196.721,190.658c-.094-.152-.338-.246-.705-.429s-2.186-1.067-2.522-1.19a1.231,1.231,0,0,0-.4-.1.51.51,0,0,0-.435.278c-.246.367-.955,1.19-1.168,1.436a.512.512,0,0,1-.4.21.909.909,0,0,1-.4-.12,9.961,9.961,0,0,1-2.969-1.813,11.134,11.134,0,0,1-2.054-2.537c-.215-.364-.022-.563.164-.744.166-.169.367-.43.555-.644a2.423,2.423,0,0,0,.367-.61.671.671,0,0,0-.032-.642c-.09-.183-.828-1.984-1.139-2.718-.229-.546-.459-.616-.651-.616-.065,0-.126.009-.181.009-.212,0-.456-.032-.705-.032a1.358,1.358,0,0,0-.983.461,4.086,4.086,0,0,0-1.293,3.051,7.049,7.049,0,0,0,1.509,3.785c.183.246,2.553,4.062,6.3,5.529a11.514,11.514,0,0,0,3.6,1.043,5.9,5.9,0,0,0,.825-.128,3.737,3.737,0,0,0,2.491-1.742A3.019,3.019,0,0,0,196.721,190.658Z" transform="translate(-181.776 -180.4)" fill="#b8860b"/></g><g transform="translate(0 0)"><path d="M104.6,88.32a15.7,15.7,0,0,0-15.736,15.63,15.517,15.517,0,0,0,1.877,7.412l-2.317,6.84a1.6,1.6,0,0,0,2,2.043l7.191-2.283a15.882,15.882,0,0,0,6.981,1.616,15.629,15.629,0,1,0,0-31.258Zm0,28.053a12.609,12.609,0,0,1-6.059-1.546,1.61,1.61,0,0,0-1.259-.122l-4.805,1.525L94,111.709a1.607,1.607,0,0,0-.149-1.35,12.309,12.309,0,0,1-1.791-6.407,12.532,12.532,0,1,1,12.53,12.421Z" transform="translate(-88.337 -88.32)" fill="#b8860b"/></g></g><rect width="41" height="36" transform="translate(4844.571 572)" fill="none"/></g></svg>